<svg width="93" height="22" viewBox="0 0 93 22" fill="none" xmlns="http://www.w3.org/2000/svg">
<g clip-path="url(#clip0_14241_217135)">
<path d="M3.81635 11.2513C3.81635 11.0133 3.82802 10.779 3.85138 10.5468C5.9749 6.47983 15.6303 9.35397 17.5706 10.4648C17.5998 10.7226 17.6144 10.9855 17.6144 11.2513C17.6144 15.0737 14.5252 18.1719 10.7154 18.1719C6.90562 18.1719 3.81635 15.073 3.81635 11.2513Z" fill="#DDEBE9"/>
<path d="M19.5233 5.12733L17.8801 6.77566C18.7094 8.10545 19.1532 9.64467 19.1532 11.252C19.1532 13.5125 18.2758 15.6383 16.6822 17.2368C15.0887 18.8353 12.9696 19.7155 10.7161 19.7155C8.46266 19.7155 6.34353 18.8353 4.74998 17.2368C3.15643 15.6383 2.279 13.5125 2.279 11.252C2.279 8.99149 3.15643 6.86573 4.74998 5.26719C6.34353 3.66865 8.46266 2.78847 10.7161 2.78847C12.3199 2.78847 13.8558 3.23515 15.1821 4.06847L16.8246 2.42087C15.0916 1.21263 12.9863 0.503067 10.7161 0.503067C4.79743 0.501602 0 5.31479 0 11.2513C0 17.1877 4.79743 22.0009 10.7161 22.0009C16.6348 22.0009 21.4322 17.1885 21.4322 11.2513C21.4322 8.97538 20.7263 6.86499 19.5233 5.12733Z" fill="#0F8277"/>
<path d="M19.0934 2.84778C19.554 3.30984 19.9541 3.81584 20.2913 4.35625L21.9345 2.70792C21.2031 1.65199 20.2884 0.733731 19.2365 0L17.594 1.6476C18.1313 1.98517 18.635 2.38572 19.0941 2.84705L19.0934 2.84778Z" fill="#0F8277"/>
<path d="M15.7953 7.5482C16.2211 7.5482 16.5662 7.202 16.5662 6.77493C16.5662 6.34787 16.2211 6.00166 15.7953 6.00166C15.3696 6.00166 15.0245 6.34787 15.0245 6.77493C15.0245 7.202 15.3696 7.5482 15.7953 7.5482Z" fill="#0F8277"/>
<path d="M11.8761 9.86655C12.4397 9.86655 12.8966 9.40822 12.8966 8.84284C12.8966 8.27746 12.4397 7.81913 11.8761 7.81913C11.3124 7.81913 10.8555 8.27746 10.8555 8.84284C10.8555 9.40822 11.3124 9.86655 11.8761 9.86655Z" fill="#0F8277"/>
<path d="M12.1103 14.5574C12.8198 14.5574 13.395 13.9804 13.395 13.2687C13.395 12.5569 12.8198 11.9799 12.1103 11.9799C11.4007 11.9799 10.8255 12.5569 10.8255 13.2687C10.8255 13.9804 11.4007 14.5574 12.1103 14.5574Z" fill="#0F8277"/>
<path d="M31.3234 17.8885C30.4734 17.8885 29.6291 17.7355 28.7904 17.4295C27.9631 17.1121 27.2321 16.6588 26.5974 16.0695L28.3314 13.9785C28.7848 14.3638 29.2834 14.6755 29.8274 14.9135C30.3828 15.1515 30.9041 15.2705 31.3914 15.2705C31.9354 15.2705 32.3434 15.1741 32.6154 14.9815C32.8988 14.7888 33.0404 14.5168 33.0404 14.1655C33.0404 13.9388 32.9724 13.7518 32.8364 13.6045C32.7004 13.4458 32.5304 13.3155 32.3264 13.2135C32.1224 13.1115 31.7654 12.9528 31.2554 12.7375L29.6404 12.0575C28.8924 11.7628 28.2748 11.3265 27.7874 10.7485C27.3114 10.1591 27.0734 9.43947 27.0734 8.58947C27.0734 7.8868 27.2661 7.24647 27.6514 6.66847C28.0481 6.07913 28.5978 5.61447 29.3004 5.27447C30.0031 4.93447 30.7908 4.76447 31.6634 4.76447C32.4114 4.76447 33.1481 4.90613 33.8734 5.18947C34.5988 5.4728 35.2334 5.88647 35.7774 6.43047L34.2644 8.33447C33.8338 8.0058 33.4088 7.76213 32.9894 7.60347C32.5814 7.4448 32.1394 7.36547 31.6634 7.36547C31.1988 7.36547 30.8304 7.45613 30.5584 7.63747C30.2978 7.8188 30.1674 8.0738 30.1674 8.40247C30.1674 8.62913 30.2411 8.8218 30.3884 8.98047C30.5471 9.1278 30.7398 9.25813 30.9664 9.37147C31.1931 9.47347 31.5614 9.62647 32.0714 9.83047L33.6524 10.4595C34.4684 10.7881 35.0861 11.2358 35.5054 11.8025C35.9361 12.3578 36.1514 13.0661 36.1514 13.9275C36.1514 14.6415 35.9588 15.2988 35.5734 15.8995C35.1881 16.5001 34.6271 16.9818 33.8904 17.3445C33.1651 17.7071 32.3094 17.8885 31.3234 17.8885ZM42.2319 4.98547C44.2379 4.98547 45.8075 5.50113 46.9409 6.53247C48.0742 7.55247 48.6409 9.1278 48.6409 11.2585C48.6409 13.3891 48.0799 14.9871 46.9579 16.0525C45.8472 17.1178 44.3285 17.6505 42.4019 17.6505H38.5939V4.98547H42.2319ZM42.0449 15.2025C43.1442 15.2025 43.9999 14.9021 44.6119 14.3015C45.2239 13.6895 45.5299 12.6751 45.5299 11.2585C45.5299 9.8418 45.2239 8.85013 44.6119 8.28347C44.0112 7.70547 43.1555 7.41647 42.0449 7.41647H41.6369V15.2025H42.0449ZM54.9056 17.8885C54.0556 17.8885 53.2113 17.7355 52.3726 17.4295C51.5453 17.1121 50.8143 16.6588 50.1796 16.0695L51.9136 13.9785C52.367 14.3638 52.8656 14.6755 53.4096 14.9135C53.965 15.1515 54.4863 15.2705 54.9736 15.2705C55.5176 15.2705 55.9256 15.1741 56.1976 14.9815C56.481 14.7888 56.6226 14.5168 56.6226 14.1655C56.6226 13.9388 56.5546 13.7518 56.4186 13.6045C56.2826 13.4458 56.1126 13.3155 55.9086 13.2135C55.7046 13.1115 55.3476 12.9528 54.8376 12.7375L53.2226 12.0575C52.4746 11.7628 51.857 11.3265 51.3696 10.7485C50.8936 10.1591 50.6556 9.43947 50.6556 8.58947C50.6556 7.8868 50.8483 7.24647 51.2336 6.66847C51.6303 6.07913 52.18 5.61447 52.8826 5.27447C53.5853 4.93447 54.373 4.76447 55.2456 4.76447C55.9936 4.76447 56.7303 4.90613 57.4556 5.18947C58.181 5.4728 58.8156 5.88647 59.3596 6.43047L57.8466 8.33447C57.416 8.0058 56.991 7.76213 56.5716 7.60347C56.1636 7.4448 55.7216 7.36547 55.2456 7.36547C54.781 7.36547 54.4126 7.45613 54.1406 7.63747C53.88 7.8188 53.7496 8.0738 53.7496 8.40247C53.7496 8.62913 53.8233 8.8218 53.9706 8.98047C54.1293 9.1278 54.322 9.25813 54.5486 9.37147C54.7753 9.47347 55.1436 9.62647 55.6536 9.83047L57.2346 10.4595C58.0506 10.7881 58.6683 11.2358 59.0876 11.8025C59.5183 12.3578 59.7336 13.0661 59.7336 13.9275C59.7336 14.6415 59.541 15.2988 59.1556 15.8995C58.7703 16.5001 58.2093 16.9818 57.4726 17.3445C56.7473 17.7071 55.8916 17.8885 54.9056 17.8885Z" fill="#1A3C40"/>
<path d="M73.3844 6.51046C73.6844 6.95046 73.8644 7.24047 73.9244 7.38047L71.8994 7.92047C71.7494 7.56047 71.4744 7.09046 71.0744 6.51046H70.3844C70.0844 6.88046 69.7694 7.21546 69.4394 7.51547L69.4244 7.50047V7.99547H75.1394V11.0855H73.0094V9.60047H63.9194V11.0855H61.8794V7.99547H67.3244V7.03547H68.6444C68.2544 6.81546 67.8944 6.64046 67.5644 6.51046H66.3794C66.5894 6.87046 66.7344 7.15047 66.8144 7.35047L64.8644 7.90547C64.7344 7.51547 64.5094 7.05046 64.1894 6.51046H64.1744C63.7844 7.02047 63.3944 7.47047 63.0044 7.86047C62.7944 7.68047 62.5044 7.47546 62.1344 7.24546C61.7744 7.00547 61.4744 6.82047 61.2344 6.69046C61.6944 6.33046 62.1244 5.88046 62.5244 5.34047C62.9344 4.79047 63.2544 4.23546 63.4844 3.67546L65.5094 4.23046C65.3894 4.49046 65.2944 4.68546 65.2244 4.81546H68.2094V5.92546C68.5294 5.61546 68.8194 5.26546 69.0794 4.87547C69.3394 4.47546 69.5494 4.07546 69.7094 3.67546L71.7794 4.18547C71.7194 4.32547 71.6194 4.53547 71.4794 4.81546H75.4394V6.51046H73.3844ZM66.3794 13.6205V14.1005H73.9094V18.1055H71.7344V17.7455H66.3794V18.1055H64.3094V10.0655H72.6644V13.6205H66.3794ZM70.4894 11.5955H66.3794V12.0905H70.4894V11.5955ZM71.7344 15.6605H66.3794V16.1705H71.7344V15.6605ZM88.4594 15.6455H91.9694V17.6105H82.3094V15.6455H86.2244V14.5655H83.2994V12.6155H86.2244V11.5955H83.3444V4.42546H91.3394V11.5955H88.4594V12.6155H91.4744V14.5655H88.4594V15.6455ZM83.0894 15.1355C81.8294 15.5655 80.1444 16.1205 78.0344 16.8005L77.5544 14.5805C77.8544 14.5105 78.4294 14.3555 79.2794 14.1155V10.9055H77.8694V8.91047H79.2794V6.61547H77.7344V4.60546H82.8794V6.61547H81.3494V8.91047H82.6094V10.9055H81.3494V13.5005L82.7144 13.0655L83.0894 15.1355ZM85.3094 6.25547V7.15547H86.4344V6.25547H85.3094ZM89.2694 7.15547V6.25547H88.2494V7.15547H89.2694ZM85.3094 8.85046V9.76547H86.4344V8.85046H85.3094ZM89.2694 9.76547V8.85046H88.2494V9.76547H89.2694Z" fill="#1A3C40"/>
</g>
<defs>
<clipPath id="clip0_14241_217135">
<rect width="92.9344" height="22.0009" fill="white"/>
</clipPath>
</defs>
</svg>
