<svg width="24" height="24" viewBox="0 0 24 24" fill="none" xmlns="http://www.w3.org/2000/svg">
<g clip-path="url(#clip0_11812_198882)">
<path d="M4.06805 12.2716C4.06805 12.016 4.08416 11.7523 4.10831 11.5047C6.45128 7.07058 17.1033 10.2024 19.237 11.4168C19.2692 11.6964 19.2853 11.984 19.2853 12.2716C19.2853 16.4421 15.8795 19.8216 11.6767 19.8216C7.47381 19.8216 4.06805 16.4421 4.06805 12.2716Z" fill="#DDEBE9"/>
<path d="M21.3947 5.59254L19.5832 7.39015C20.501 8.84421 20.9841 10.522 20.9841 12.2716C20.9841 14.7403 20.0179 17.0573 18.2547 18.7989C16.4995 20.5406 14.1565 21.5073 11.6767 21.5073C9.18876 21.5073 6.85385 20.5486 5.09863 18.7989C3.34342 17.0573 2.3692 14.7324 2.3692 12.2716C2.3692 9.80293 3.33537 7.48602 5.09863 5.74434C6.85385 4.00266 9.19681 3.03595 11.6767 3.03595C13.448 3.03595 15.1388 3.5233 16.6041 4.43409L18.4157 2.63648C16.5075 1.31824 14.1807 0.543276 11.6767 0.543276C5.14694 0.543276 -0.142853 5.79228 -0.142853 12.2716C-0.142853 18.751 5.14694 24 11.6767 24C18.2064 24 23.4962 18.751 23.4962 12.2716C23.4962 9.78695 22.7152 7.48602 21.3947 5.59254ZM20.9197 3.10786C21.4269 3.61119 21.8698 4.16245 22.2401 4.75366L24.0517 2.95606C23.2466 1.80559 22.2401 0.798935 21.0727 0L19.2611 1.7976C19.8569 2.16511 20.4125 2.60453 20.9197 3.10786Z" fill="#0F8277"/>
<path d="M17.2805 8.23702C17.7518 8.23702 18.1339 7.85786 18.1339 7.39015C18.1339 6.92243 17.7518 6.54328 17.2805 6.54328C16.8091 6.54328 16.427 6.92243 16.427 7.39015C16.427 7.85786 16.8091 8.23702 17.2805 8.23702Z" fill="#0F8277"/>
<path d="M12.9569 10.7617C13.5794 10.7617 14.0841 10.2609 14.0841 9.64314C14.0841 9.02541 13.5794 8.52464 12.9569 8.52464C12.3343 8.52464 11.8297 9.02541 11.8297 9.64314C11.8297 10.2609 12.3343 10.7617 12.9569 10.7617Z" fill="#0F8277"/>
<path d="M13.2145 15.8828C13.9971 15.8828 14.6315 15.2533 14.6315 14.4767C14.6315 13.7001 13.9971 13.0706 13.2145 13.0706C12.4319 13.0706 11.7974 13.7001 11.7974 14.4767C11.7974 15.2533 12.4319 15.8828 13.2145 15.8828Z" fill="#0F8277"/>
</g>
<defs>
<clipPath id="clip0_11812_198882">
<rect width="24" height="24" fill="white"/>
</clipPath>
</defs>
</svg>
