<svg viewBox="0 0 24 24" fill="currentColor" xmlns="http://www.w3.org/2000/svg">
    <path d="M11.5 14C12.0523 14 12.5 14.4477 12.5 15C12.5 15.5523 12.0523 16 11.5 16H8C7.20435 16 6.44152 16.3163 5.87891 16.8789C5.3163 17.4415 5 18.2044 5 19V21C5 21.5523 4.55228 22 4 22C3.44772 22 3 21.5523 3 21V19C3 17.6739 3.52716 16.4025 4.46484 15.4648C5.40253 14.5272 6.67392 14 8 14H11.5Z" />
    <path d="M19.4287 16C20.3759 16 21.2844 16.3954 21.9541 17.0986C22.6237 17.8019 23 18.7555 23 19.75V20.5C23 20.8977 22.8498 21.2793 22.582 21.5605C22.3141 21.8419 21.9502 22 21.5713 22H14.4287C14.0498 22 13.6859 21.8419 13.418 21.5605C13.1502 21.2793 13 20.8977 13 20.5V19.75C13 18.7555 13.3763 17.8019 14.0459 17.0986C14.7156 16.3954 15.6241 16 16.5713 16H19.4287Z" />
    <path d="M18 9C18.5933 9 19.1736 9.17622 19.667 9.50586C20.1601 9.83542 20.5445 10.3037 20.7715 10.8516C20.9985 11.3996 21.0581 12.0031 20.9424 12.585C20.8266 13.1669 20.5407 13.7015 20.1211 14.1211C19.7015 14.5407 19.1669 14.8266 18.585 14.9424C18.0031 15.0581 17.3996 14.9985 16.8516 14.7715C16.3037 14.5444 15.8354 14.1601 15.5059 13.667C15.1762 13.1736 15 12.5933 15 12L15.0029 11.8701C15.0365 11.0978 15.3674 10.3677 15.9258 9.83301C16.4841 9.29853 17.2271 9.00004 18 9Z" />
    <path fill-rule="evenodd" clip-rule="evenodd" d="M10 2C11.3261 2 12.5975 2.52716 13.5352 3.46484C14.4728 4.40253 15 5.67392 15 7L14.9941 7.24805C14.9328 8.48382 14.4142 9.6561 13.5352 10.5352C12.6561 11.4142 11.4838 11.9328 10.248 11.9941L10 12C8.67392 12 7.40253 11.4728 6.46484 10.5352C5.58579 9.6561 5.06719 8.48382 5.00586 7.24805L5 7C5 5.67392 5.52716 4.40253 6.46484 3.46484C7.40253 2.52716 8.67392 2 10 2ZM10 4C9.20435 4 8.44152 4.3163 7.87891 4.87891C7.3163 5.44152 7 6.20435 7 7L7.01465 7.29688C7.08291 7.98351 7.38671 8.6289 7.87891 9.12109C8.44152 9.6837 9.20435 10 10 10L10.2969 9.98535C10.9835 9.91709 11.6289 9.61329 12.1211 9.12109C12.6837 8.55848 13 7.79565 13 7L12.9854 6.70312C12.9171 6.01649 12.6133 5.3711 12.1211 4.87891C11.6289 4.38671 10.9835 4.08291 10.2969 4.01465L10 4Z" />
</svg>
