<svg viewBox="0 0 24 24" fill="currentColor" xmlns="http://www.w3.org/2000/svg">
<path fill-rule="evenodd" clip-rule="evenodd" d="M6.9641 2.98113C7.90178 2.04345 9.17355 1.51666 10.4996 1.51666C11.8257 1.51666 13.0975 2.04345 14.0352 2.98113C14.9728 3.91881 15.4996 5.19058 15.4996 6.51666C15.4996 7.84274 14.9728 9.11451 14.0352 10.0522C13.0975 10.9899 11.8257 11.5167 10.4996 11.5167C9.17355 11.5167 7.90178 10.9899 6.9641 10.0522C6.02642 9.11451 5.49963 7.84274 5.49963 6.51666C5.49963 5.19058 6.02642 3.91881 6.9641 2.98113ZM10.4996 3.51666C9.70398 3.51666 8.94092 3.83273 8.37831 4.39534C7.8157 4.95795 7.49963 5.72101 7.49963 6.51666C7.49963 7.31231 7.8157 8.07537 8.37831 8.63798C8.94092 9.20059 9.70398 9.51666 10.4996 9.51666C11.2953 9.51666 12.0583 9.20059 12.621 8.63798C13.1836 8.07537 13.4996 7.31231 13.4996 6.51666C13.4996 5.72101 13.1836 4.95795 12.621 4.39534C12.0583 3.83273 11.2953 3.51666 10.4996 3.51666Z" />
<path fill-rule="evenodd" clip-rule="evenodd" d="M8.49963 15.5167C7.70398 15.5167 6.94092 15.8327 6.37831 16.3953C5.8157 16.958 5.49963 17.721 5.49963 18.5167V20.5167C5.49963 21.0689 5.05192 21.5167 4.49963 21.5167C3.94735 21.5167 3.49963 21.0689 3.49963 20.5167V18.5167C3.49963 17.1906 4.02642 15.9188 4.9641 14.9811C5.90178 14.0434 7.17355 13.5167 8.49963 13.5167H11.4996C12.0519 13.5167 12.4996 13.9644 12.4996 14.5167C12.4996 15.0689 12.0519 15.5167 11.4996 15.5167H8.49963Z" />
<path d="M20.1129 15.1217H13.9137C13.8109 15.1217 13.7124 15.1625 13.6397 15.2352C13.5671 15.3078 13.5262 15.4064 13.5262 15.5092V16.372L13.5293 16.4584C13.5486 16.7171 13.6539 16.9619 13.8285 17.1539L15.4635 18.952V22.0958C15.4635 22.1572 15.4781 22.2177 15.506 22.2724C15.534 22.327 15.5745 22.3743 15.6243 22.4102C15.6741 22.4461 15.7317 22.4697 15.7924 22.4789C15.8531 22.4882 15.9151 22.4829 15.9734 22.4635L18.2981 21.6886L18.3399 21.672C18.4067 21.6407 18.4631 21.5911 18.5026 21.5289C18.5422 21.4668 18.5631 21.3946 18.5631 21.3209V18.7692L20.1598 17.1729C20.2678 17.0649 20.3535 16.9366 20.412 16.7955C20.4704 16.6543 20.5004 16.5031 20.5004 16.3503V15.5092C20.5004 15.4064 20.4595 15.3078 20.3869 15.2352C20.3142 15.1625 20.2157 15.1217 20.1129 15.1217Z" />
</svg>
