<svg viewBox="0 0 24 24" fill="currentColor" xmlns="http://www.w3.org/2000/svg">
<path d="M8 20C8.55228 20 9 20.4477 9 21C9 21.5523 8.55228 22 8 22H2C1.44772 22 1 21.5523 1 21C1 20.4477 1.44772 20 2 20H8Z" />
<path d="M19.4287 16C20.3759 16 21.2844 16.3954 21.9541 17.0986C22.6237 17.8019 23 18.7555 23 19.75V20.5C23 20.8977 22.8498 21.2793 22.582 21.5605C22.3141 21.8419 21.9502 22 21.5713 22H14.4287C14.0498 22 13.6859 21.8419 13.418 21.5605C13.1502 21.2793 13 20.8977 13 20.5V19.75C13 18.7555 13.3763 17.8019 14.0459 17.0986C14.7156 16.3954 15.6241 16 16.5713 16H19.4287Z" />
<path d="M8 14C8.55228 14 9 14.4477 9 15C9 15.5523 8.55228 16 8 16H2C1.44772 16 1 15.5523 1 15C1 14.4477 1.44772 14 2 14H8Z" />
<path d="M18 9C18.5933 9 19.1736 9.17622 19.667 9.50586C20.1601 9.83542 20.5445 10.3037 20.7715 10.8516C20.9985 11.3996 21.0581 12.0031 20.9424 12.585C20.8266 13.1669 20.5407 13.7015 20.1211 14.1211C19.7015 14.5407 19.1669 14.8266 18.585 14.9424C18.0031 15.0581 17.3996 14.9985 16.8516 14.7715C16.3037 14.5444 15.8354 14.1601 15.5059 13.667C15.1762 13.1736 15 12.5933 15 12L15.0029 11.8701C15.0365 11.0978 15.3674 10.3677 15.9258 9.83301C16.4841 9.29853 17.2271 9.00004 18 9Z" />
<path d="M12 8C12.5523 8 13 8.44772 13 9C13 9.55228 12.5523 10 12 10H2C1.44772 10 1 9.55228 1 9C1 8.44772 1.44772 8 2 8H12Z" />
<path d="M19 2C19.5523 2 20 2.44772 20 3C20 3.55228 19.5523 4 19 4H2C1.44772 4 1 3.55228 1 3C1 2.44772 1.44772 2 2 2H19Z" />
</svg>
